<svg width="1412" height="186" viewBox="0 0 1412 186" fill="none" xmlns="http://www.w3.org/2000/svg">
<g clip-path="url(#clip0)">
<rect width="1412" height="186" rx="15.0855" fill="#131C30"/>
<path d="M56.1426 78.2905H59.6726V60.2483H65.9179V56.8692H49.9273V60.2483H56.1426V78.2905ZM71.7883 78.2905V70.8685C71.7883 67.61 73.4779 65.9204 75.6804 65.9204C77.6113 65.9204 78.8181 67.3385 78.8181 69.7522V78.2905H82.1369V69.2091C82.1369 65.3774 79.8741 62.9033 76.3743 62.9033C74.4132 62.9033 72.7236 63.718 71.7883 65.2567V55.6623H68.4695V78.2905H71.7883ZM93.2021 78.5922C96.3701 78.5922 98.7234 77.2647 100.081 75.0924L97.5468 73.2822C96.7321 74.6097 95.3744 75.5751 93.2323 75.5751C90.698 75.5751 88.7368 73.9761 88.586 71.4719H100.443C100.473 70.9892 100.473 70.7176 100.473 70.3857C100.473 65.5282 97.1847 62.9033 93.2021 62.9033C88.6162 62.9033 85.3275 66.3127 85.3275 70.7478C85.3275 75.3639 88.6162 78.5922 93.2021 78.5922ZM88.7368 69.0582C89.2196 66.8256 91.1203 65.7092 93.0815 65.7092C95.0124 65.7092 96.7623 66.8859 97.1244 69.0582H88.7368Z" fill="white"/>
<path d="M61.694 109.653C65.9179 109.653 69.4178 107.51 71.3487 104.222L68.3014 102.472C66.8834 104.765 64.6809 106.243 61.694 106.243C57.4399 106.243 54.1814 102.804 54.1814 98.5798C54.1814 94.3559 57.4399 90.9164 61.694 90.9164C64.6809 90.9164 66.8834 92.3948 68.3014 94.6878L71.3487 92.9379C69.4178 89.6492 65.9179 87.5071 61.694 87.5071C55.5391 87.5071 50.6213 92.3948 50.6213 98.5798C50.6213 104.765 55.5391 109.653 61.694 109.653ZM81.1514 109.592C85.6167 109.592 89.0562 106.123 89.0562 101.748C89.0562 97.373 85.6167 93.9033 81.1514 93.9033C76.6861 93.9033 73.2467 97.373 73.2467 101.748C73.2467 106.123 76.6861 109.592 81.1514 109.592ZM81.1514 106.515C78.4662 106.515 76.5956 104.433 76.5956 101.748C76.5956 99.0626 78.4662 96.9808 81.1514 96.9808C83.8065 96.9808 85.6771 99.0626 85.6771 101.748C85.6771 104.433 83.8065 106.515 81.1514 106.515ZM92.3941 109.291H95.7129V101.868C95.7129 98.61 97.4025 96.9204 99.605 96.9204C101.536 96.9204 102.743 98.3385 102.743 100.752V109.291H106.062V100.209C106.062 96.3774 103.799 93.9033 100.299 93.9033C98.3378 93.9033 96.6482 94.718 95.7129 96.2567V94.2051H92.3941V109.291ZM111.549 109.291H114.868V97.1618H119.183V94.2051H114.868V92.0629C114.868 90.1622 115.683 89.4984 117.403 89.4984C118.036 89.4984 118.7 89.5889 119.183 89.8001V86.8433C118.549 86.6321 117.765 86.4813 116.709 86.4813C113.812 86.4813 111.549 88.2916 111.549 91.6707V94.2051H108.412V97.1618H111.549V109.291ZM123.497 90.9164C124.734 90.9164 125.7 89.9208 125.7 88.6838C125.7 87.4769 124.734 86.4813 123.497 86.4813C122.29 86.4813 121.264 87.4769 121.264 88.6838C121.264 89.9208 122.29 90.9164 123.497 90.9164ZM121.838 109.291H125.156V94.2051H121.838V109.291ZM135.821 109.592C137.994 109.592 139.804 108.476 140.649 107.269V109.291H143.968V86.6623H140.649V96.2265C139.804 95.0197 137.994 93.9033 135.821 93.9033C131.688 93.9033 128.55 97.4333 128.55 101.748C128.55 106.062 131.688 109.592 135.821 109.592ZM136.425 106.575C133.77 106.575 131.929 104.463 131.929 101.748C131.929 99.0324 133.77 96.9204 136.425 96.9204C139.08 96.9204 140.92 99.0324 140.92 101.748C140.92 104.463 139.08 106.575 136.425 106.575ZM155.282 109.592C158.45 109.592 160.804 108.265 162.161 106.092L159.627 104.282C158.812 105.61 157.455 106.575 155.313 106.575C152.778 106.575 150.817 104.976 150.666 102.472H162.523C162.554 101.989 162.554 101.718 162.554 101.386C162.554 96.5282 159.265 93.9033 155.282 93.9033C150.696 93.9033 147.408 97.3127 147.408 101.748C147.408 106.364 150.696 109.592 155.282 109.592ZM150.817 100.058C151.3 97.8256 153.201 96.7092 155.162 96.7092C157.093 96.7092 158.843 97.8859 159.205 100.058H150.817ZM165.965 109.291H169.284V101.868C169.284 98.61 170.974 96.9204 173.176 96.9204C175.107 96.9204 176.314 98.3385 176.314 100.752V109.291H179.633V100.209C179.633 96.3774 177.37 93.9033 173.87 93.9033C171.909 93.9033 170.219 94.718 169.284 96.2567V94.2051H165.965V109.291ZM190.25 109.441C191.306 109.441 192.03 109.321 192.724 109.11V106.153C192.241 106.364 191.577 106.454 190.943 106.454C189.224 106.454 188.409 105.791 188.409 103.89V97.1618H192.724V94.2051H188.409V90.0113H185.09V94.2051H181.953V97.1618H185.09V104.433C185.09 107.842 187.353 109.441 190.25 109.441Z" fill="#6155E8"/>
<path d="M50.2587 142.667H59.0023V140.808H52.2229V135.929H57.7351V134.071H52.2229V129.53H59.0023V127.672H50.2587V142.667ZM75.3256 142.667H77.1419V136.183C77.1419 133.585 75.748 131.895 73.446 131.895C71.8409 131.895 70.5526 132.783 69.9824 134.155C69.4544 132.74 68.3139 131.895 66.7299 131.895C65.2938 131.895 64.1533 132.614 63.5409 133.733V132.107H61.7246V142.667H63.5409V137.429C63.5409 135.042 64.7447 133.564 66.4554 133.564C67.8282 133.564 68.5251 134.747 68.5251 136.457V142.667H70.3414V137.26C70.4048 134.979 71.5452 133.564 73.2348 133.564C74.6076 133.564 75.3256 134.747 75.3256 136.457V142.667ZM82.438 147.081V141.04C83.135 142.054 84.55 142.878 86.1551 142.878C89.1118 142.878 91.3294 140.407 91.3294 137.387C91.3294 134.366 89.1118 131.895 86.1551 131.895C84.55 131.895 83.135 132.719 82.438 133.733V132.107H80.6217V147.081H82.438ZM85.8805 141.209C83.7686 141.209 82.2902 139.52 82.2902 137.387C82.2902 135.254 83.7686 133.564 85.8805 133.564C87.9925 133.564 89.4709 135.254 89.4709 137.387C89.4709 139.52 87.9925 141.209 85.8805 141.209ZM98.845 142.878C102.013 142.878 104.357 140.428 104.357 137.387C104.357 134.345 102.013 131.895 98.845 131.895C95.6348 131.895 93.3117 134.345 93.3117 137.387C93.3117 140.428 95.6348 142.878 98.845 142.878ZM98.845 141.188C96.6486 141.188 95.1702 139.499 95.1702 137.387C95.1702 135.275 96.6486 133.585 98.845 133.585C101.041 133.585 102.499 135.275 102.499 137.387C102.499 139.499 101.041 141.188 98.845 141.188ZM116.089 142.667H117.694L121.284 132.107H119.363L116.807 139.815L114.167 132.107H112.773L110.133 139.815L107.578 132.107H105.677L109.267 142.667H110.872L113.47 135.085L116.089 142.667ZM128.058 142.878C130.255 142.878 131.86 141.906 132.81 140.364L131.374 139.372C130.72 140.491 129.706 141.209 128.08 141.209C125.989 141.209 124.489 139.71 124.426 137.746H133.085C133.106 137.513 133.106 137.387 133.106 137.197C133.106 133.817 130.825 131.895 128.08 131.895C124.848 131.895 122.588 134.282 122.588 137.387C122.588 140.491 124.764 142.878 128.058 142.878ZM124.553 136.267C124.891 134.514 126.432 133.501 128.016 133.501C129.621 133.501 130.973 134.535 131.248 136.267H124.553ZM135.895 142.667H137.711V137.429C137.711 134.958 139.169 133.796 140.499 133.796C140.858 133.796 141.154 133.817 141.492 133.965V132.086C141.217 132.022 140.943 132.001 140.668 132.001C139.464 132.001 138.113 132.804 137.711 134.155V132.107H135.895V142.667ZM148.116 142.878C150.312 142.878 151.917 141.906 152.867 140.364L151.431 139.372C150.777 140.491 149.763 141.209 148.137 141.209C146.046 141.209 144.546 139.71 144.483 137.746H153.142C153.163 137.513 153.163 137.387 153.163 137.197C153.163 133.817 150.882 131.895 148.137 131.895C144.905 131.895 142.646 134.282 142.646 137.387C142.646 140.491 144.821 142.878 148.116 142.878ZM144.61 136.267C144.948 134.514 146.489 133.501 148.073 133.501C149.678 133.501 151.03 134.535 151.305 136.267H144.61ZM160.303 142.878C161.908 142.878 163.323 142.054 164.02 141.04V142.667H165.836V126.827H164.02V133.733C163.323 132.719 161.908 131.895 160.303 131.895C157.346 131.895 155.128 134.366 155.128 137.387C155.128 140.407 157.346 142.878 160.303 142.878ZM160.577 141.209C158.444 141.209 156.966 139.52 156.966 137.387C156.966 135.254 158.444 133.564 160.577 133.564C162.689 133.564 164.168 135.254 164.168 137.387C164.168 139.52 162.689 141.209 160.577 141.209ZM171.726 142.202C171.895 141.927 172.022 141.611 172.022 141.251C172.022 140.407 171.325 139.668 170.459 139.668C169.593 139.668 168.896 140.407 168.896 141.251C168.896 141.906 169.255 142.413 169.762 142.667L168.347 145.687H169.551L171.726 142.202ZM180.661 142.667H189.405V140.808H182.625V135.929H188.137V134.071H182.625V129.53H189.405V127.672H180.661V142.667ZM205.728 142.667H207.544V136.183C207.544 133.585 206.15 131.895 203.848 131.895C202.243 131.895 200.955 132.783 200.385 134.155C199.857 132.74 198.716 131.895 197.132 131.895C195.696 131.895 194.556 132.614 193.943 133.733V132.107H192.127V142.667H193.943V137.429C193.943 135.042 195.147 133.564 196.858 133.564C198.231 133.564 198.927 134.747 198.927 136.457V142.667H200.744V137.26C200.807 134.979 201.948 133.564 203.637 133.564C205.01 133.564 205.728 134.747 205.728 136.457V142.667ZM215.713 142.878C218.881 142.878 221.225 140.428 221.225 137.387C221.225 134.345 218.881 131.895 215.713 131.895C212.502 131.895 210.179 134.345 210.179 137.387C210.179 140.428 212.502 142.878 215.713 142.878ZM215.713 141.188C213.516 141.188 212.038 139.499 212.038 137.387C212.038 135.275 213.516 133.585 215.713 133.585C217.909 133.585 219.366 135.275 219.366 137.387C219.366 139.499 217.909 141.188 215.713 141.188ZM227.955 142.772C228.609 142.772 229.137 142.667 229.581 142.519V140.892C229.243 141.04 228.736 141.104 228.293 141.104C227.131 141.104 226.54 140.66 226.54 139.308V133.775H229.581V132.107H226.54V129.171H224.723V132.107H222.485V133.775H224.723V139.541C224.723 141.737 226.096 142.772 227.955 142.772ZM233.042 129.277C233.781 129.277 234.309 128.728 234.309 127.988C234.309 127.291 233.781 126.7 233.042 126.7C232.302 126.7 231.732 127.291 231.732 127.988C231.732 128.728 232.302 129.277 233.042 129.277ZM232.112 142.667H233.929V132.107H232.112V142.667ZM242.271 142.878C245.439 142.878 247.784 140.428 247.784 137.387C247.784 134.345 245.439 131.895 242.271 131.895C239.061 131.895 236.738 134.345 236.738 137.387C236.738 140.428 239.061 142.878 242.271 142.878ZM242.271 141.188C240.075 141.188 238.597 139.499 238.597 137.387C238.597 135.275 240.075 133.585 242.271 133.585C244.468 133.585 245.925 135.275 245.925 137.387C245.925 139.499 244.468 141.188 242.271 141.188ZM250.602 142.667H252.418V137.429C252.418 134.958 253.791 133.564 255.481 133.564C256.98 133.564 257.973 134.662 257.973 136.436V142.667H259.768V136.162C259.768 133.543 258.142 131.895 255.776 131.895C254.404 131.895 253.157 132.466 252.418 133.733V132.107H250.602V142.667ZM267.6 142.878C269.206 142.878 270.621 142.054 271.318 141.04V142.667H273.134V132.107H271.318V133.733C270.621 132.719 269.206 131.895 267.6 131.895C264.644 131.895 262.426 134.366 262.426 137.387C262.426 140.407 264.644 142.878 267.6 142.878ZM267.875 141.209C265.742 141.209 264.264 139.52 264.264 137.387C264.264 135.254 265.742 133.564 267.875 133.564C269.987 133.564 271.465 135.254 271.465 137.387C271.465 139.52 269.987 141.209 267.875 141.209ZM276.764 142.667H278.58V126.827H276.764V142.667Z" fill="#7686AC"/>
<path d="M409.143 75.2734H412.673V57.2312H418.918V53.8521H402.927V57.2312H409.143V75.2734ZM424.788 75.2734V67.8514C424.788 64.5929 426.478 62.9034 428.68 62.9034C430.611 62.9034 431.818 64.3214 431.818 66.7351V75.2734H435.137V66.192C435.137 62.3603 432.874 59.8863 429.374 59.8863C427.413 59.8863 425.724 60.7009 424.788 62.2396V52.6452H421.47V75.2734H424.788ZM446.202 75.5751C449.37 75.5751 451.723 74.2476 453.081 72.0753L450.547 70.2651C449.732 71.5926 448.374 72.5581 446.232 72.5581C443.698 72.5581 441.737 70.959 441.586 68.4548H453.443C453.473 67.9721 453.473 67.7005 453.473 67.3687C453.473 62.5111 450.185 59.8863 446.202 59.8863C441.616 59.8863 438.328 63.2956 438.328 67.7307C438.328 72.3469 441.616 75.5751 446.202 75.5751ZM441.737 66.0411C442.22 63.8085 444.12 62.6922 446.081 62.6922C448.012 62.6922 449.762 63.8688 450.124 66.0411H441.737Z" fill="white"/>
<path d="M404.979 106.273H408.509V96.8601H410.108L417.953 106.273H422.297L414.332 96.6489C417.44 95.955 419.19 93.9637 419.19 90.9466C419.19 87.4166 416.685 84.8521 412.703 84.8521H404.979V106.273ZM408.509 93.7827V88.1105H412.28C414.362 88.1105 415.66 89.1062 415.66 90.9466C415.66 92.787 414.362 93.7827 412.28 93.7827H408.509ZM430.292 106.575C433.46 106.575 435.813 105.248 437.171 103.075L434.636 101.265C433.822 102.593 432.464 103.558 430.322 103.558C427.788 103.558 425.826 101.959 425.676 99.4548H437.533C437.563 98.9721 437.563 98.7005 437.563 98.3687C437.563 93.5111 434.274 90.8863 430.292 90.8863C425.706 90.8863 422.417 94.2956 422.417 98.7307C422.417 103.347 425.706 106.575 430.292 106.575ZM425.826 97.0411C426.309 94.8085 428.21 93.6922 430.171 93.6922C432.102 93.6922 433.852 94.8688 434.214 97.0411H425.826ZM447.854 106.575C450.991 106.575 453.586 104.946 454.883 102.412L451.987 100.843C451.263 102.381 449.784 103.498 447.854 103.498C445.168 103.498 443.268 101.416 443.268 98.7307C443.268 96.0455 445.168 93.9637 447.854 93.9637C449.784 93.9637 451.263 95.08 451.987 96.6187L454.883 95.0498C453.586 92.5155 450.991 90.8863 447.854 90.8863C443.328 90.8863 439.888 94.2654 439.888 98.7307C439.888 103.196 443.328 106.575 447.854 106.575ZM464.735 106.575C467.903 106.575 470.256 105.248 471.614 103.075L469.08 101.265C468.265 102.593 466.907 103.558 464.765 103.558C462.231 103.558 460.27 101.959 460.119 99.4548H471.976C472.006 98.9721 472.006 98.7005 472.006 98.3687C472.006 93.5111 468.717 90.8863 464.735 90.8863C460.149 90.8863 456.86 94.2956 456.86 98.7307C456.86 103.347 460.149 106.575 464.735 106.575ZM460.27 97.0411C460.752 94.8085 462.653 93.6922 464.614 93.6922C466.545 93.6922 468.295 94.8688 468.657 97.0411H460.27ZM478.737 112.579V104.252C479.581 105.459 481.422 106.575 483.594 106.575C487.728 106.575 490.865 103.045 490.865 98.7307C490.865 94.4163 487.728 90.8863 483.594 90.8863C481.422 90.8863 479.581 92.0026 478.737 93.2094V91.188H475.418V112.579H478.737ZM482.991 103.558C480.305 103.558 478.465 101.446 478.465 98.7307C478.465 96.0153 480.305 93.9034 482.991 93.9034C485.646 93.9034 487.486 96.0153 487.486 98.7307C487.486 101.446 485.646 103.558 482.991 103.558ZM500.498 106.424C501.554 106.424 502.278 106.304 502.972 106.092V103.136C502.489 103.347 501.825 103.437 501.192 103.437C499.472 103.437 498.657 102.774 498.657 100.873V94.1447H502.972V91.188H498.657V86.9942H495.338V91.188H492.201V94.1447H495.338V101.416C495.338 104.825 497.601 106.424 500.498 106.424ZM507.778 87.8993C509.015 87.8993 509.981 86.9037 509.981 85.6667C509.981 84.4598 509.015 83.4642 507.778 83.4642C506.572 83.4642 505.546 84.4598 505.546 85.6667C505.546 86.9037 506.572 87.8993 507.778 87.8993ZM506.119 106.273H509.438V91.188H506.119V106.273ZM518.604 106.273H521.531L528.38 91.188H524.669L520.052 101.778L515.466 91.188H511.786L518.604 106.273ZM537.127 106.575C540.295 106.575 542.649 105.248 544.006 103.075L541.472 101.265C540.657 102.593 539.3 103.558 537.158 103.558C534.623 103.558 532.662 101.959 532.511 99.4548H544.369C544.399 98.9721 544.399 98.7005 544.399 98.3687C544.399 93.5111 541.11 90.8863 537.127 90.8863C532.542 90.8863 529.253 94.2956 529.253 98.7307C529.253 103.347 532.542 106.575 537.127 106.575ZM532.662 97.0411C533.145 94.8085 535.046 93.6922 537.007 93.6922C538.938 93.6922 540.688 94.8688 541.05 97.0411H532.662Z" fill="#BCB7FA"/>
<path d="M403.259 139.649H412.002V137.791H405.223V132.912H410.735V131.054H405.223V126.513H412.002V124.654H403.259V139.649ZM428.326 139.649H430.142V133.166C430.142 130.568 428.748 128.878 426.446 128.878C424.841 128.878 423.553 129.765 422.982 131.138C422.454 129.723 421.314 128.878 419.73 128.878C418.294 128.878 417.153 129.596 416.541 130.716V129.09H414.725V139.649H416.541V134.412C416.541 132.025 417.745 130.547 419.455 130.547C420.828 130.547 421.525 131.73 421.525 133.44V139.649H423.341V134.243C423.405 131.962 424.545 130.547 426.235 130.547C427.608 130.547 428.326 131.73 428.326 133.44V139.649ZM435.438 144.063V138.023C436.135 139.037 437.55 139.861 439.155 139.861C442.112 139.861 444.329 137.39 444.329 134.369C444.329 131.349 442.112 128.878 439.155 128.878C437.55 128.878 436.135 129.702 435.438 130.716V129.09H433.622V144.063H435.438ZM438.881 138.192C436.769 138.192 435.29 136.503 435.29 134.369C435.29 132.236 436.769 130.547 438.881 130.547C440.992 130.547 442.471 132.236 442.471 134.369C442.471 136.503 440.992 138.192 438.881 138.192ZM451.845 139.861C455.013 139.861 457.357 137.411 457.357 134.369C457.357 131.328 455.013 128.878 451.845 128.878C448.635 128.878 446.312 131.328 446.312 134.369C446.312 137.411 448.635 139.861 451.845 139.861ZM451.845 138.171C449.649 138.171 448.17 136.481 448.17 134.369C448.17 132.258 449.649 130.568 451.845 130.568C454.041 130.568 455.499 132.258 455.499 134.369C455.499 136.481 454.041 138.171 451.845 138.171ZM469.089 139.649H470.694L474.284 129.09H472.363L469.807 136.798L467.167 129.09H465.773L463.133 136.798L460.578 129.09H458.677L462.267 139.649H463.872L466.47 132.067L469.089 139.649ZM481.058 139.861C483.255 139.861 484.86 138.889 485.81 137.347L484.374 136.355C483.72 137.474 482.706 138.192 481.08 138.192C478.989 138.192 477.489 136.693 477.426 134.729H486.085C486.106 134.496 486.106 134.369 486.106 134.179C486.106 130.8 483.825 128.878 481.08 128.878C477.848 128.878 475.588 131.265 475.588 134.369C475.588 137.474 477.764 139.861 481.058 139.861ZM477.553 133.25C477.891 131.497 479.432 130.483 481.016 130.483C482.621 130.483 483.973 131.518 484.248 133.25H477.553ZM488.895 139.649H490.711V134.412C490.711 131.941 492.169 130.779 493.499 130.779C493.858 130.779 494.154 130.8 494.492 130.948V129.068C494.217 129.005 493.943 128.984 493.668 128.984C492.464 128.984 491.113 129.787 490.711 131.138V129.09H488.895V139.649ZM501.116 139.861C503.312 139.861 504.917 138.889 505.867 137.347L504.431 136.355C503.777 137.474 502.763 138.192 501.137 138.192C499.046 138.192 497.546 136.693 497.483 134.729H506.142C506.163 134.496 506.163 134.369 506.163 134.179C506.163 130.8 503.882 128.878 501.137 128.878C497.905 128.878 495.646 131.265 495.646 134.369C495.646 137.474 497.821 139.861 501.116 139.861ZM497.61 133.25C497.948 131.497 499.489 130.483 501.073 130.483C502.678 130.483 504.03 131.518 504.305 133.25H497.61ZM513.303 139.861C514.908 139.861 516.323 139.037 517.02 138.023V139.649H518.836V123.81H517.02V130.716C516.323 129.702 514.908 128.878 513.303 128.878C510.346 128.878 508.128 131.349 508.128 134.369C508.128 137.39 510.346 139.861 513.303 139.861ZM513.577 138.192C511.444 138.192 509.966 136.503 509.966 134.369C509.966 132.236 511.444 130.547 513.577 130.547C515.689 130.547 517.168 132.236 517.168 134.369C517.168 136.503 515.689 138.192 513.577 138.192ZM524.726 139.185C524.895 138.91 525.022 138.593 525.022 138.234C525.022 137.39 524.325 136.65 523.459 136.65C522.593 136.65 521.896 137.39 521.896 138.234C521.896 138.889 522.255 139.396 522.762 139.649L521.347 142.67H522.551L524.726 139.185ZM533.661 139.649H535.625V132.828H537.082L542.848 139.649H545.319L539.532 132.807C541.877 132.469 543.249 130.99 543.249 128.794C543.249 126.323 541.56 124.654 538.772 124.654H533.661V139.649ZM535.625 131.075V126.471H538.54C540.25 126.471 541.285 127.273 541.285 128.794C541.285 130.315 540.25 131.075 538.54 131.075H535.625ZM551.066 139.861C552.671 139.861 554.086 139.037 554.783 138.023V139.649H556.599V129.09H554.783V130.716C554.086 129.702 552.671 128.878 551.066 128.878C548.109 128.878 545.891 131.349 545.891 134.369C545.891 137.39 548.109 139.861 551.066 139.861ZM551.34 138.192C549.207 138.192 547.729 136.503 547.729 134.369C547.729 132.236 549.207 130.547 551.34 130.547C553.452 130.547 554.931 132.236 554.931 134.369C554.931 136.503 553.452 138.192 551.34 138.192ZM564.326 139.755C564.981 139.755 565.509 139.649 565.953 139.502V137.875C565.615 138.023 565.108 138.087 564.664 138.087C563.503 138.087 562.911 137.643 562.911 136.291V130.758H565.953V129.09H562.911V126.154H561.095V129.09H558.856V130.758H561.095V136.524C561.095 138.72 562.468 139.755 564.326 139.755ZM569.413 126.26C570.152 126.26 570.68 125.71 570.68 124.971C570.68 124.274 570.152 123.683 569.413 123.683C568.674 123.683 568.104 124.274 568.104 124.971C568.104 125.71 568.674 126.26 569.413 126.26ZM568.484 139.649H570.3V129.09H568.484V139.649ZM578.643 139.861C581.811 139.861 584.155 137.411 584.155 134.369C584.155 131.328 581.811 128.878 578.643 128.878C575.433 128.878 573.11 131.328 573.11 134.369C573.11 137.411 575.433 139.861 578.643 139.861ZM578.643 138.171C576.447 138.171 574.968 136.481 574.968 134.369C574.968 132.258 576.447 130.568 578.643 130.568C580.839 130.568 582.297 132.258 582.297 134.369C582.297 136.481 580.839 138.171 578.643 138.171ZM586.974 139.649H588.79V134.412C588.79 131.941 590.163 130.547 591.852 130.547C593.352 130.547 594.344 131.645 594.344 133.419V139.649H596.139V133.145C596.139 130.526 594.513 128.878 592.148 128.878C590.775 128.878 589.529 129.449 588.79 130.716V129.09H586.974V139.649ZM603.972 139.861C605.577 139.861 606.992 139.037 607.689 138.023V139.649H609.505V129.09H607.689V130.716C606.992 129.702 605.577 128.878 603.972 128.878C601.015 128.878 598.798 131.349 598.798 134.369C598.798 137.39 601.015 139.861 603.972 139.861ZM604.247 138.192C602.114 138.192 600.635 136.503 600.635 134.369C600.635 132.236 602.114 130.547 604.247 130.547C606.359 130.547 607.837 132.236 607.837 134.369C607.837 136.503 606.359 138.192 604.247 138.192ZM613.136 139.649H614.952V123.81H613.136V139.649Z" fill="#7686AC"/>
<path d="M762.142 72.2563H765.672V54.2141H771.918V50.835H755.927V54.2141H762.142V72.2563ZM777.788 72.2563V64.8343C777.788 61.5758 779.478 59.8863 781.68 59.8863C783.611 59.8863 784.818 61.3043 784.818 63.718V72.2563H788.137V63.1749C788.137 59.3432 785.874 56.8692 782.374 56.8692C780.413 56.8692 778.724 57.6838 777.788 59.2225V49.6281H774.469V72.2563H777.788ZM799.202 72.5581C802.37 72.5581 804.723 71.2305 806.081 69.0582L803.547 67.248C802.732 68.5755 801.374 69.541 799.232 69.541C796.698 69.541 794.737 67.9419 794.586 65.4377H806.443C806.473 64.955 806.473 64.6834 806.473 64.3516C806.473 59.494 803.185 56.8692 799.202 56.8692C794.616 56.8692 791.327 60.2785 791.327 64.7136C791.327 69.3298 794.616 72.5581 799.202 72.5581ZM794.737 63.024C795.219 60.7914 797.12 59.6751 799.081 59.6751C801.012 59.6751 802.762 60.8517 803.124 63.024H794.737Z" fill="white"/>
<path d="M757.979 103.256H761.509V93.843H763.108L770.952 103.256H775.297L767.332 93.6318C770.439 92.9379 772.189 90.9466 772.189 87.9295C772.189 84.3995 769.685 81.835 765.703 81.835H757.979V103.256ZM761.509 90.7656V85.0934H765.28C767.362 85.0934 768.659 86.0891 768.659 87.9295C768.659 89.7699 767.362 90.7656 765.28 90.7656H761.509ZM783.292 103.558C786.46 103.558 788.813 102.231 790.171 100.058L787.636 98.248C786.822 99.5755 785.464 100.541 783.322 100.541C780.787 100.541 778.826 98.9419 778.675 96.4377H790.533C790.563 95.955 790.563 95.6834 790.563 95.3516C790.563 90.494 787.274 87.8692 783.292 87.8692C778.706 87.8692 775.417 91.2785 775.417 95.7136C775.417 100.33 778.706 103.558 783.292 103.558ZM778.826 94.024C779.309 91.7914 781.21 90.6751 783.171 90.6751C785.102 90.6751 786.852 91.8517 787.214 94.024H778.826ZM800.853 103.558C803.991 103.558 806.586 101.929 807.883 99.3945L804.987 97.8256C804.263 99.3643 802.784 100.481 800.853 100.481C798.168 100.481 796.267 98.3988 796.267 95.7136C796.267 93.0284 798.168 90.9466 800.853 90.9466C802.784 90.9466 804.263 92.0629 804.987 93.6016L807.883 92.0328C806.586 89.4984 803.991 87.8692 800.853 87.8692C796.328 87.8692 792.888 91.2483 792.888 95.7136C792.888 100.179 796.328 103.558 800.853 103.558ZM810.916 103.256H814.235V80.6281H810.916V103.256ZM824.095 103.558C826.026 103.558 827.625 102.743 828.5 101.205V103.256H831.819V88.1709H828.5V95.5929C828.5 98.8514 826.992 100.541 824.819 100.541C822.888 100.541 821.802 99.0626 821.802 96.6489V88.1709H818.483V97.192C818.483 101.054 820.626 103.558 824.095 103.558ZM841.082 103.558C844.189 103.558 846.543 101.778 846.543 98.8816C846.543 96.3774 844.974 95.1102 842.319 94.2956L840.78 93.843C839.302 93.3904 838.97 92.787 838.97 92.0629C838.97 91.1276 839.996 90.6449 840.991 90.6449C842.228 90.6449 843.163 91.2483 843.857 92.1836L846.15 90.4337C845.094 88.7441 843.344 87.8692 841.051 87.8692C838.034 87.8692 835.651 89.5286 835.651 92.1836C835.621 94.4464 836.948 96.0757 839.603 96.7998L840.931 97.1618C842.741 97.7351 843.254 98.2178 843.254 99.0928C843.254 100.149 842.258 100.692 841.082 100.692C839.543 100.692 838.065 99.9375 837.461 98.61L835.017 100.36C836.103 102.532 838.396 103.558 841.082 103.558ZM851.645 84.8822C852.882 84.8822 853.847 83.8866 853.847 82.6496C853.847 81.4428 852.882 80.4471 851.645 80.4471C850.438 80.4471 849.412 81.4428 849.412 82.6496C849.412 83.8866 850.438 84.8822 851.645 84.8822ZM849.985 103.256H853.304V88.1709H849.985V103.256ZM862.47 103.256H865.397L872.246 88.1709H868.535L863.918 98.7609L859.332 88.1709H855.652L862.47 103.256ZM880.994 103.558C884.162 103.558 886.515 102.231 887.873 100.058L885.338 98.248C884.524 99.5755 883.166 100.541 881.024 100.541C878.489 100.541 876.528 98.9419 876.377 96.4377H888.235C888.265 95.955 888.265 95.6834 888.265 95.3516C888.265 90.494 884.976 87.8692 880.994 87.8692C876.408 87.8692 873.119 91.2785 873.119 95.7136C873.119 100.33 876.408 103.558 880.994 103.558ZM876.528 94.024C877.011 91.7914 878.912 90.6751 880.873 90.6751C882.804 90.6751 884.554 91.8517 884.916 94.024H876.528Z" fill="#FED86F"/>
<path d="M756.259 136.632H760.567C765.171 136.632 768.55 133.422 768.55 129.135C768.55 124.848 765.171 121.637 760.567 121.637H756.259V136.632ZM758.223 134.795V123.475H760.567C764.179 123.475 766.565 125.861 766.565 129.135C766.565 132.408 764.179 134.795 760.567 134.795H758.223ZM772.242 123.242C772.982 123.242 773.51 122.693 773.51 121.954C773.51 121.257 772.982 120.666 772.242 120.666C771.503 120.666 770.933 121.257 770.933 121.954C770.933 122.693 771.503 123.242 772.242 123.242ZM771.313 136.632H773.129V126.072H771.313V136.632ZM779.973 136.844C782.085 136.844 783.648 135.703 783.648 133.676C783.648 132.07 782.613 131.141 780.775 130.571L779.614 130.212C778.431 129.853 778.114 129.346 778.114 128.691C778.114 127.91 778.959 127.424 779.867 127.424C780.881 127.424 781.578 127.952 782.064 128.628L783.415 127.699C782.718 126.516 781.514 125.861 779.931 125.861C777.924 125.861 776.298 126.96 776.298 128.755C776.298 130.254 777.185 131.331 778.938 131.838L779.994 132.176C781.367 132.598 781.831 133.063 781.831 133.823C781.831 134.732 781.008 135.238 779.994 135.238C778.811 135.238 777.713 134.647 777.312 133.57L775.833 134.394C776.488 136.062 778.093 136.844 779.973 136.844ZM791.149 136.844C793.346 136.844 794.951 135.872 795.901 134.33L794.465 133.338C793.81 134.457 792.797 135.175 791.17 135.175C789.079 135.175 787.58 133.676 787.517 131.711H796.176C796.197 131.479 796.197 131.352 796.197 131.162C796.197 127.783 793.916 125.861 791.17 125.861C787.939 125.861 785.679 128.248 785.679 131.352C785.679 134.457 787.855 136.844 791.149 136.844ZM787.643 130.233C787.981 128.48 789.523 127.466 791.107 127.466C792.712 127.466 794.064 128.501 794.338 130.233H787.643ZM812.587 136.632H814.403V130.149C814.403 127.551 813.009 125.861 810.707 125.861C809.102 125.861 807.814 126.748 807.244 128.121C806.716 126.706 805.575 125.861 803.991 125.861C802.555 125.861 801.414 126.579 800.802 127.699V126.072H798.986V136.632H800.802V131.395C800.802 129.008 802.006 127.53 803.717 127.53C805.089 127.53 805.786 128.712 805.786 130.423V136.632H807.603V131.226C807.666 128.945 808.806 127.53 810.496 127.53C811.869 127.53 812.587 128.712 812.587 130.423V136.632ZM819.699 141.046V135.006C820.396 136.02 821.811 136.844 823.416 136.844C826.373 136.844 828.591 134.373 828.591 131.352C828.591 128.332 826.373 125.861 823.416 125.861C821.811 125.861 820.396 126.685 819.699 127.699V126.072H817.883V141.046H819.699ZM823.142 135.175C821.03 135.175 819.551 133.485 819.551 131.352C819.551 129.219 821.03 127.53 823.142 127.53C825.254 127.53 826.732 129.219 826.732 131.352C826.732 133.485 825.254 135.175 823.142 135.175ZM836.106 136.844C839.274 136.844 841.618 134.394 841.618 131.352C841.618 128.311 839.274 125.861 836.106 125.861C832.896 125.861 830.573 128.311 830.573 131.352C830.573 134.394 832.896 136.844 836.106 136.844ZM836.106 135.154C833.91 135.154 832.431 133.464 832.431 131.352C832.431 129.24 833.91 127.551 836.106 127.551C838.303 127.551 839.76 129.24 839.76 131.352C839.76 133.464 838.303 135.154 836.106 135.154ZM853.35 136.632H854.955L858.546 126.072H856.624L854.068 133.781L851.428 126.072H850.034L847.394 133.781L844.839 126.072H842.938L846.529 136.632H848.134L850.731 129.05L853.35 136.632ZM865.32 136.844C867.516 136.844 869.121 135.872 870.072 134.33L868.635 133.338C867.981 134.457 866.967 135.175 865.341 135.175C863.25 135.175 861.75 133.676 861.687 131.711H870.346C870.367 131.479 870.367 131.352 870.367 131.162C870.367 127.783 868.086 125.861 865.341 125.861C862.109 125.861 859.85 128.248 859.85 131.352C859.85 134.457 862.025 136.844 865.32 136.844ZM861.814 130.233C862.152 128.48 863.693 127.466 865.277 127.466C866.882 127.466 868.234 128.501 868.509 130.233H861.814ZM873.156 136.632H874.972V131.395C874.972 128.924 876.43 127.762 877.76 127.762C878.119 127.762 878.415 127.783 878.753 127.931V126.051C878.478 125.988 878.204 125.967 877.929 125.967C876.725 125.967 875.374 126.769 874.972 128.121V126.072H873.156V136.632ZM885.377 136.844C887.573 136.844 889.178 135.872 890.129 134.33L888.692 133.338C888.038 134.457 887.024 135.175 885.398 135.175C883.307 135.175 881.807 133.676 881.744 131.711H890.403C890.424 131.479 890.424 131.352 890.424 131.162C890.424 127.783 888.143 125.861 885.398 125.861C882.167 125.861 879.907 128.248 879.907 131.352C879.907 134.457 882.082 136.844 885.377 136.844ZM881.871 130.233C882.209 128.48 883.75 127.466 885.334 127.466C886.94 127.466 888.291 128.501 888.566 130.233H881.871ZM897.564 136.844C899.169 136.844 900.584 136.02 901.281 135.006V136.632H903.097V120.793H901.281V127.699C900.584 126.685 899.169 125.861 897.564 125.861C894.607 125.861 892.39 128.332 892.39 131.352C892.39 134.373 894.607 136.844 897.564 136.844ZM897.838 135.175C895.705 135.175 894.227 133.485 894.227 131.352C894.227 129.219 895.705 127.53 897.838 127.53C899.95 127.53 901.429 129.219 901.429 131.352C901.429 133.485 899.95 135.175 897.838 135.175ZM908.987 136.168C909.156 135.893 909.283 135.576 909.283 135.217C909.283 134.373 908.586 133.633 907.72 133.633C906.854 133.633 906.157 134.373 906.157 135.217C906.157 135.872 906.516 136.379 907.023 136.632L905.608 139.652H906.812L908.987 136.168ZM917.922 136.632H926.666V134.774H919.886V129.895H925.399V128.037H919.886V123.496H926.666V121.637H917.922V136.632ZM942.989 136.632H944.805V130.149C944.805 127.551 943.412 125.861 941.11 125.861C939.504 125.861 938.216 126.748 937.646 128.121C937.118 126.706 935.977 125.861 934.393 125.861C932.957 125.861 931.817 126.579 931.204 127.699V126.072H929.388V136.632H931.204V131.395C931.204 129.008 932.408 127.53 934.119 127.53C935.492 127.53 936.189 128.712 936.189 130.423V136.632H938.005V131.226C938.068 128.945 939.209 127.53 940.898 127.53C942.271 127.53 942.989 128.712 942.989 130.423V136.632ZM952.974 136.844C956.142 136.844 958.486 134.394 958.486 131.352C958.486 128.311 956.142 125.861 952.974 125.861C949.764 125.861 947.44 128.311 947.44 131.352C947.44 134.394 949.764 136.844 952.974 136.844ZM952.974 135.154C950.777 135.154 949.299 133.464 949.299 131.352C949.299 129.24 950.777 127.551 952.974 127.551C955.17 127.551 956.627 129.24 956.627 131.352C956.627 133.464 955.17 135.154 952.974 135.154ZM965.216 136.738C965.871 136.738 966.399 136.632 966.842 136.484V134.858C966.504 135.006 965.997 135.069 965.554 135.069C964.392 135.069 963.801 134.626 963.801 133.274V127.741H966.842V126.072H963.801V123.137H961.985V126.072H959.746V127.741H961.985V133.507C961.985 135.703 963.357 136.738 965.216 136.738ZM970.303 123.242C971.042 123.242 971.57 122.693 971.57 121.954C971.57 121.257 971.042 120.666 970.303 120.666C969.564 120.666 968.993 121.257 968.993 121.954C968.993 122.693 969.564 123.242 970.303 123.242ZM969.374 136.632H971.19V126.072H969.374V136.632ZM979.533 136.844C982.701 136.844 985.045 134.394 985.045 131.352C985.045 128.311 982.701 125.861 979.533 125.861C976.322 125.861 973.999 128.311 973.999 131.352C973.999 134.394 976.322 136.844 979.533 136.844ZM979.533 135.154C977.336 135.154 975.858 133.464 975.858 131.352C975.858 129.24 977.336 127.551 979.533 127.551C981.729 127.551 983.186 129.24 983.186 131.352C983.186 133.464 981.729 135.154 979.533 135.154ZM987.863 136.632H989.679V131.395C989.679 128.924 991.052 127.53 992.742 127.53C994.241 127.53 995.234 128.628 995.234 130.402V136.632H997.029V130.127C997.029 127.509 995.403 125.861 993.037 125.861C991.665 125.861 990.419 126.432 989.679 127.699V126.072H987.863V136.632ZM1004.86 136.844C1006.47 136.844 1007.88 136.02 1008.58 135.006V136.632H1010.4V126.072H1008.58V127.699C1007.88 126.685 1006.47 125.861 1004.86 125.861C1001.9 125.861 999.687 128.332 999.687 131.352C999.687 134.373 1001.9 136.844 1004.86 136.844ZM1005.14 135.175C1003 135.175 1001.52 133.485 1001.52 131.352C1001.52 129.219 1003 127.53 1005.14 127.53C1007.25 127.53 1008.73 129.219 1008.73 131.352C1008.73 133.485 1007.25 135.175 1005.14 135.175ZM1014.03 136.632H1015.84V120.793H1014.03V136.632Z" fill="#7686AC"/>
<path d="M1115.14 69.2393H1118.67V51.197H1124.92V47.8179H1108.93V51.197H1115.14V69.2393ZM1130.79 69.2393V61.8172C1130.79 58.5587 1132.48 56.8692 1134.68 56.8692C1136.61 56.8692 1137.82 58.2872 1137.82 60.7009V69.2393H1141.14V60.1578C1141.14 56.3261 1138.87 53.8521 1135.37 53.8521C1133.41 53.8521 1131.72 54.6667 1130.79 56.2054V46.6111H1127.47V69.2393H1130.79ZM1152.2 69.541C1155.37 69.541 1157.72 68.2134 1159.08 66.0411L1156.55 64.2309C1155.73 65.5584 1154.37 66.5239 1152.23 66.5239C1149.7 66.5239 1147.74 64.9248 1147.59 62.4206H1159.44C1159.47 61.9379 1159.47 61.6664 1159.47 61.3345C1159.47 56.4769 1156.18 53.8521 1152.2 53.8521C1147.62 53.8521 1144.33 57.2614 1144.33 61.6965C1144.33 66.3127 1147.62 69.541 1152.2 69.541ZM1147.74 60.0069C1148.22 57.7743 1150.12 56.658 1152.08 56.658C1154.01 56.658 1155.76 57.8346 1156.12 60.0069H1147.74Z" fill="white"/>
<path d="M1120.69 100.601C1124.92 100.601 1128.42 98.4592 1130.35 95.1705L1127.3 93.4206C1125.88 95.7136 1123.68 97.192 1120.69 97.192C1116.44 97.192 1113.18 93.7525 1113.18 89.5286C1113.18 85.3046 1116.44 81.8652 1120.69 81.8652C1123.68 81.8652 1125.88 83.3435 1127.3 85.6365L1130.35 83.8866C1128.42 80.598 1124.92 78.4558 1120.69 78.4558C1114.54 78.4558 1109.62 83.3435 1109.62 89.5286C1109.62 95.7136 1114.54 100.601 1120.69 100.601ZM1133.33 100.239H1136.65V92.8775C1136.65 89.8605 1138.37 88.2614 1140.27 88.2614C1140.88 88.2614 1141.36 88.3217 1141.93 88.5329V85.1236C1141.54 85.0331 1141.09 85.0029 1140.63 85.0029C1138.91 85.0029 1137.22 86.1193 1136.65 87.839V85.1538H1133.33V100.239ZM1146.45 81.8652C1147.69 81.8652 1148.66 80.8695 1148.66 79.6325C1148.66 78.4257 1147.69 77.43 1146.45 77.43C1145.25 77.43 1144.22 78.4257 1144.22 79.6325C1144.22 80.8695 1145.25 81.8652 1146.45 81.8652ZM1144.79 100.239H1148.11V85.1538H1144.79V100.239ZM1159.12 100.39C1160.18 100.39 1160.9 100.269 1161.59 100.058V97.1015C1161.11 97.3127 1160.45 97.4032 1159.81 97.4032C1158.09 97.4032 1157.28 96.7394 1157.28 94.8387V88.1105H1161.59V85.1538H1157.28V80.96H1153.96V85.1538H1150.82V88.1105H1153.96V95.3817C1153.96 98.7911 1156.22 100.39 1159.12 100.39ZM1166.4 81.8652C1167.64 81.8652 1168.6 80.8695 1168.6 79.6325C1168.6 78.4257 1167.64 77.43 1166.4 77.43C1165.19 77.43 1164.17 78.4257 1164.17 79.6325C1164.17 80.8695 1165.19 81.8652 1166.4 81.8652ZM1164.74 100.239H1168.06V85.1538H1164.74V100.239ZM1179.4 100.541C1182.54 100.541 1185.13 98.9117 1186.43 96.3774L1183.53 94.8085C1182.81 96.3472 1181.33 97.4635 1179.4 97.4635C1176.71 97.4635 1174.81 95.3817 1174.81 92.6965C1174.81 90.0113 1176.71 87.9295 1179.4 87.9295C1181.33 87.9295 1182.81 89.0458 1183.53 90.5846L1186.43 89.0157C1185.13 86.4813 1182.54 84.8521 1179.4 84.8521C1174.87 84.8521 1171.43 88.2312 1171.43 92.6965C1171.43 97.1618 1174.87 100.541 1179.4 100.541ZM1195.65 100.541C1197.82 100.541 1199.63 99.4246 1200.47 98.2178V100.239H1203.79V85.1538H1200.47V87.1752C1199.63 85.9684 1197.82 84.8521 1195.65 84.8521C1191.51 84.8521 1188.38 88.3821 1188.38 92.6965C1188.38 97.011 1191.51 100.541 1195.65 100.541ZM1196.25 97.5239C1193.59 97.5239 1191.75 95.4119 1191.75 92.6965C1191.75 89.9811 1193.59 87.8692 1196.25 87.8692C1198.9 87.8692 1200.75 89.9811 1200.75 92.6965C1200.75 95.4119 1198.9 97.5239 1196.25 97.5239ZM1208.29 100.239H1211.61V77.6111H1208.29V100.239Z" fill="#798BB1"/>
<path d="M1109.26 133.615H1113.57C1118.17 133.615 1121.55 130.405 1121.55 126.118C1121.55 121.83 1118.17 118.62 1113.57 118.62H1109.26V133.615ZM1111.22 131.778V120.458H1113.57C1117.18 120.458 1119.57 122.844 1119.57 126.118C1119.57 129.391 1117.18 131.778 1113.57 131.778H1111.22ZM1125.24 120.225C1125.98 120.225 1126.51 119.676 1126.51 118.937C1126.51 118.24 1125.98 117.649 1125.24 117.649C1124.5 117.649 1123.93 118.24 1123.93 118.937C1123.93 119.676 1124.5 120.225 1125.24 120.225ZM1124.31 133.615H1126.13V123.055H1124.31V133.615ZM1132.97 133.826C1135.08 133.826 1136.65 132.686 1136.65 130.658C1136.65 129.053 1135.61 128.124 1133.78 127.554L1132.61 127.195C1131.43 126.836 1131.11 126.329 1131.11 125.674C1131.11 124.893 1131.96 124.407 1132.87 124.407C1133.88 124.407 1134.58 124.935 1135.06 125.611L1136.42 124.682C1135.72 123.499 1134.51 122.844 1132.93 122.844C1130.92 122.844 1129.3 123.942 1129.3 125.738C1129.3 127.237 1130.19 128.314 1131.94 128.821L1132.99 129.159C1134.37 129.581 1134.83 130.046 1134.83 130.806C1134.83 131.714 1134.01 132.221 1132.99 132.221C1131.81 132.221 1130.71 131.63 1130.31 130.553L1128.83 131.377C1129.49 133.045 1131.09 133.826 1132.97 133.826ZM1144.15 133.826C1146.35 133.826 1147.95 132.855 1148.9 131.313L1147.47 130.321C1146.81 131.44 1145.8 132.158 1144.17 132.158C1142.08 132.158 1140.58 130.658 1140.52 128.694H1149.18C1149.2 128.462 1149.2 128.335 1149.2 128.145C1149.2 124.766 1146.92 122.844 1144.17 122.844C1140.94 122.844 1138.68 125.231 1138.68 128.335C1138.68 131.44 1140.85 133.826 1144.15 133.826ZM1140.64 127.216C1140.98 125.463 1142.52 124.449 1144.11 124.449C1145.71 124.449 1147.06 125.484 1147.34 127.216H1140.64ZM1165.59 133.615H1167.4V127.131C1167.4 124.534 1166.01 122.844 1163.71 122.844C1162.1 122.844 1160.81 123.731 1160.24 125.104C1159.72 123.689 1158.58 122.844 1156.99 122.844C1155.56 122.844 1154.41 123.562 1153.8 124.682V123.055H1151.99V133.615H1153.8V128.378C1153.8 125.991 1155.01 124.513 1156.72 124.513C1158.09 124.513 1158.79 125.695 1158.79 127.406V133.615H1160.6V128.209C1160.67 125.928 1161.81 124.513 1163.5 124.513C1164.87 124.513 1165.59 125.695 1165.59 127.406V133.615ZM1172.7 138.029V131.989C1173.4 133.003 1174.81 133.826 1176.42 133.826C1179.37 133.826 1181.59 131.355 1181.59 128.335C1181.59 125.315 1179.37 122.844 1176.42 122.844C1174.81 122.844 1173.4 123.668 1172.7 124.682V123.055H1170.88V138.029H1172.7ZM1176.14 132.158C1174.03 132.158 1172.55 130.468 1172.55 128.335C1172.55 126.202 1174.03 124.513 1176.14 124.513C1178.25 124.513 1179.73 126.202 1179.73 128.335C1179.73 130.468 1178.25 132.158 1176.14 132.158ZM1189.11 133.826C1192.27 133.826 1194.62 131.377 1194.62 128.335C1194.62 125.294 1192.27 122.844 1189.11 122.844C1185.9 122.844 1183.57 125.294 1183.57 128.335C1183.57 131.377 1185.9 133.826 1189.11 133.826ZM1189.11 132.137C1186.91 132.137 1185.43 130.447 1185.43 128.335C1185.43 126.223 1186.91 124.534 1189.11 124.534C1191.3 124.534 1192.76 126.223 1192.76 128.335C1192.76 130.447 1191.3 132.137 1189.11 132.137ZM1206.35 133.615H1207.96L1211.55 123.055H1209.62L1207.07 130.764L1204.43 123.055H1203.03L1200.39 130.764L1197.84 123.055H1195.94L1199.53 133.615H1201.13L1203.73 126.033L1206.35 133.615ZM1218.32 133.826C1220.52 133.826 1222.12 132.855 1223.07 131.313L1221.64 130.321C1220.98 131.44 1219.97 132.158 1218.34 132.158C1216.25 132.158 1214.75 130.658 1214.69 128.694H1223.35C1223.37 128.462 1223.37 128.335 1223.37 128.145C1223.37 124.766 1221.09 122.844 1218.34 122.844C1215.11 122.844 1212.85 125.231 1212.85 128.335C1212.85 131.44 1215.03 133.826 1218.32 133.826ZM1214.81 127.216C1215.15 125.463 1216.69 124.449 1218.28 124.449C1219.88 124.449 1221.23 125.484 1221.51 127.216H1214.81ZM1226.16 133.615H1227.97V128.378C1227.97 125.907 1229.43 124.745 1230.76 124.745C1231.12 124.745 1231.42 124.766 1231.75 124.914V123.034C1231.48 122.971 1231.2 122.95 1230.93 122.95C1229.73 122.95 1228.37 123.752 1227.97 125.104V123.055H1226.16V133.615ZM1238.38 133.826C1240.57 133.826 1242.18 132.855 1243.13 131.313L1241.69 130.321C1241.04 131.44 1240.02 132.158 1238.4 132.158C1236.31 132.158 1234.81 130.658 1234.74 128.694H1243.4C1243.42 128.462 1243.42 128.335 1243.42 128.145C1243.42 124.766 1241.14 122.844 1238.4 122.844C1235.17 122.844 1232.91 125.231 1232.91 128.335C1232.91 131.44 1235.08 133.826 1238.38 133.826ZM1234.87 127.216C1235.21 125.463 1236.75 124.449 1238.33 124.449C1239.94 124.449 1241.29 125.484 1241.57 127.216H1234.87ZM1250.56 133.826C1252.17 133.826 1253.58 133.003 1254.28 131.989V133.615H1256.1V117.775H1254.28V124.682C1253.58 123.668 1252.17 122.844 1250.56 122.844C1247.61 122.844 1245.39 125.315 1245.39 128.335C1245.39 131.355 1247.61 133.826 1250.56 133.826ZM1250.84 132.158C1248.71 132.158 1247.23 130.468 1247.23 128.335C1247.23 126.202 1248.71 124.513 1250.84 124.513C1252.95 124.513 1254.43 126.202 1254.43 128.335C1254.43 130.468 1252.95 132.158 1250.84 132.158ZM1261.99 133.151C1262.16 132.876 1262.28 132.559 1262.28 132.2C1262.28 131.355 1261.59 130.616 1260.72 130.616C1259.85 130.616 1259.16 131.355 1259.16 132.2C1259.16 132.855 1259.52 133.362 1260.02 133.615L1258.61 136.635H1259.81L1261.99 133.151ZM1270.92 133.615H1272.89V126.794H1274.34L1280.11 133.615H1282.58L1276.79 126.772C1279.14 126.435 1280.51 124.956 1280.51 122.76C1280.51 120.289 1278.82 118.62 1276.03 118.62H1270.92V133.615ZM1272.89 125.041V120.437H1275.8C1277.51 120.437 1278.55 121.239 1278.55 122.76C1278.55 124.28 1277.51 125.041 1275.8 125.041H1272.89ZM1288.33 133.826C1289.93 133.826 1291.35 133.003 1292.04 131.989V133.615H1293.86V123.055H1292.04V124.682C1291.35 123.668 1289.93 122.844 1288.33 122.844C1285.37 122.844 1283.15 125.315 1283.15 128.335C1283.15 131.355 1285.37 133.826 1288.33 133.826ZM1288.6 132.158C1286.47 132.158 1284.99 130.468 1284.99 128.335C1284.99 126.202 1286.47 124.513 1288.6 124.513C1290.71 124.513 1292.19 126.202 1292.19 128.335C1292.19 130.468 1290.71 132.158 1288.6 132.158ZM1301.59 133.721C1302.24 133.721 1302.77 133.615 1303.21 133.467V131.841C1302.88 131.989 1302.37 132.052 1301.93 132.052C1300.76 132.052 1300.17 131.609 1300.17 130.257V124.724H1303.21V123.055H1300.17V120.12H1298.36V123.055H1296.12V124.724H1298.36V130.49C1298.36 132.686 1299.73 133.721 1301.59 133.721ZM1306.67 120.225C1307.41 120.225 1307.94 119.676 1307.94 118.937C1307.94 118.24 1307.41 117.649 1306.67 117.649C1305.94 117.649 1305.37 118.24 1305.37 118.937C1305.37 119.676 1305.94 120.225 1306.67 120.225ZM1305.75 133.615H1307.56V123.055H1305.75V133.615ZM1315.9 133.826C1319.07 133.826 1321.42 131.377 1321.42 128.335C1321.42 125.294 1319.07 122.844 1315.9 122.844C1312.69 122.844 1310.37 125.294 1310.37 128.335C1310.37 131.377 1312.69 133.826 1315.9 133.826ZM1315.9 132.137C1313.71 132.137 1312.23 130.447 1312.23 128.335C1312.23 126.223 1313.71 124.534 1315.9 124.534C1318.1 124.534 1319.56 126.223 1319.56 128.335C1319.56 130.447 1318.1 132.137 1315.9 132.137ZM1324.23 133.615H1326.05V128.378C1326.05 125.907 1327.42 124.513 1329.11 124.513C1330.61 124.513 1331.61 125.611 1331.61 127.385V133.615H1333.4V127.11C1333.4 124.492 1331.77 122.844 1329.41 122.844C1328.04 122.844 1326.79 123.414 1326.05 124.682V123.055H1324.23V133.615ZM1341.23 133.826C1342.84 133.826 1344.25 133.003 1344.95 131.989V133.615H1346.77V123.055H1344.95V124.682C1344.25 123.668 1342.84 122.844 1341.23 122.844C1338.28 122.844 1336.06 125.315 1336.06 128.335C1336.06 131.355 1338.28 133.826 1341.23 133.826ZM1341.51 132.158C1339.37 132.158 1337.9 130.468 1337.9 128.335C1337.9 126.202 1339.37 124.513 1341.51 124.513C1343.62 124.513 1345.1 126.202 1345.1 128.335C1345.1 130.468 1343.62 132.158 1341.51 132.158ZM1350.4 133.615H1352.21V117.775H1350.4V133.615Z" fill="#7686AC"/>
<rect width="353" height="12.0684" fill="#6155E8"/>
<rect x="353" y="-0.000244141" width="353" height="12.0684" fill="#BCB7FA"/>
<rect x="706" y="-0.000244141" width="353" height="12.0684" fill="#FED86F"/>
<rect x="1059" y="-0.000244141" width="353" height="12.0684" fill="#798BB1"/>
</g>
<defs>
<clipPath id="clip0">
<rect width="1412" height="186" rx="15.0855" fill="white"/>
</clipPath>
</defs>
</svg>
