<svg width="122" height="33" viewBox="0 0 122 33" fill="none" xmlns="http://www.w3.org/2000/svg">
<path d="M22.9099 8.96443C24.4543 8.96443 25.6677 9.47589 26.5502 10.4988C27.4327 11.5217 27.874 12.9157 27.874 14.6807C27.874 15.6234 27.7436 16.6162 27.4829 17.6591C26.8812 20.1462 25.758 22.0416 24.1133 23.3453C22.4686 24.6289 20.5632 25.2708 18.3971 25.2708C17.0131 25.2708 15.8097 24.9799 14.7868 24.3983L13.8241 27.6174C13.7438 27.8381 13.7037 28.0487 13.7037 28.2492C13.7037 28.4699 13.7539 28.6504 13.8542 28.7908C13.9544 28.9512 14.0848 29.1017 14.2453 29.2421C14.4057 29.4025 14.506 29.5329 14.5461 29.6332C14.6063 29.7335 14.6163 29.8538 14.5762 29.9942C14.496 30.2549 14.3054 30.4354 14.0046 30.5357C13.7037 30.6561 13.2424 30.7162 12.6207 30.7162H5.73107C5.20959 30.7162 4.83854 30.626 4.61791 30.4455C4.37723 30.285 4.30703 30.0744 4.40731 29.8137C4.44743 29.6532 4.51763 29.5229 4.61791 29.4226C4.7182 29.3223 4.8586 29.232 5.03911 29.1518C5.33996 28.9512 5.58065 28.7406 5.76116 28.52C5.94167 28.3194 6.10213 27.9885 6.24253 27.5272L10.635 13.1162C10.6952 12.9357 10.7253 12.7853 10.7253 12.6649C10.7253 12.4443 10.6751 12.2738 10.5748 12.1535C10.4746 12.0131 10.3241 11.8727 10.1236 11.7323C9.92299 11.5718 9.78259 11.4314 9.70236 11.3111C9.62213 11.1908 9.6121 11.0303 9.67227 10.8297C9.79262 10.3684 10.4244 9.96728 11.5677 9.62631C12.7109 9.26529 13.9043 9.08477 15.1478 9.08477C16.0303 9.08477 16.7524 9.3054 17.314 9.74666C17.8956 10.1879 18.2266 10.7996 18.3068 11.5819C19.6707 9.83691 21.205 8.96443 22.9099 8.96443ZM19.42 17.8998C19.9013 16.1148 20.142 14.8812 20.142 14.1993C20.142 13.7781 20.0718 13.5073 19.9314 13.387C19.8111 13.2466 19.6306 13.1764 19.3899 13.1764C19.2094 13.1764 18.9787 13.2667 18.6979 13.4472C18.4171 13.6076 18.1363 13.8884 17.8555 14.2896L15.4788 22.172C15.7195 22.4126 16.0103 22.533 16.3513 22.533C16.8928 22.533 17.4042 22.2321 17.8856 21.6304C18.387 21.0087 18.8985 19.7651 19.42 17.8998ZM39.6196 9.08477C42.3473 9.08477 44.353 9.63634 45.6367 10.7395C46.9404 11.8426 47.5922 13.2867 47.5922 15.0718C47.5922 15.6735 47.512 16.3454 47.3515 17.0875C46.9704 18.7322 46.2584 20.1763 45.2155 21.4198C44.1725 22.6433 42.8889 23.596 41.3645 24.2779C39.8602 24.9398 38.2256 25.2708 36.4606 25.2708C33.6727 25.2708 31.6068 24.7192 30.263 23.6161C28.9392 22.4929 28.2773 21.0087 28.2773 19.1634C28.2773 18.5416 28.3576 17.8497 28.518 17.0875C28.8991 15.5231 29.6211 14.1391 30.6842 12.9357C31.7672 11.7122 33.081 10.7696 34.6254 10.1077C36.1898 9.42574 37.8545 9.08477 39.6196 9.08477ZM39.5293 11.7624C39.1081 11.7624 38.6568 12.1435 38.1755 12.9056C37.7141 13.6477 37.1626 15.0618 36.5208 17.1477C35.8789 19.2336 35.558 20.6978 35.558 21.5402C35.558 21.9814 35.6282 22.2823 35.7686 22.4427C35.909 22.5831 36.0996 22.6533 36.3402 22.6533C36.7614 22.6934 37.1927 22.3324 37.6339 21.5703C38.0952 20.8081 38.6669 19.3239 39.3488 17.1176C39.9706 15.1721 40.2814 13.7581 40.2814 12.8755C40.2814 12.4543 40.2112 12.1635 40.0708 12.0031C39.9505 11.8426 39.77 11.7624 39.5293 11.7624ZM58.6411 8.93435C59.8646 8.93435 60.9376 9.11486 61.8603 9.47589C62.7829 9.81685 63.4949 10.2982 63.9963 10.92C64.5178 11.5217 64.7786 12.1936 64.7786 12.9357C64.7786 13.738 64.4978 14.3999 63.9362 14.9214C63.3946 15.4428 62.6525 15.7036 61.7098 15.7036C60.7471 15.7036 59.995 15.4629 59.4534 14.9815C58.9119 14.4801 58.6411 13.8082 58.6411 12.9658C58.6411 12.5647 58.7013 12.1435 58.8216 11.7022C57.9792 11.9228 57.2271 12.3641 56.5652 13.026C55.9234 13.6678 55.4922 14.5202 55.2715 15.5832C55.1512 16.185 55.091 16.7265 55.091 17.2079C55.091 18.2909 55.3919 19.1133 55.9936 19.6749C56.5953 20.2365 57.4577 20.5173 58.5809 20.5173C59.2228 20.5173 59.7743 20.4571 60.2356 20.3367C60.697 20.1963 61.1683 20.0158 61.6497 19.7952C62.0508 19.5946 62.3416 19.4944 62.5221 19.4944C62.6425 19.4944 62.7227 19.5244 62.7628 19.5846C62.8029 19.6247 62.823 19.725 62.823 19.8855C62.8431 20.6276 62.5322 21.4098 61.8903 22.2321C61.2686 23.0344 60.3961 23.7164 59.2729 24.2779C58.1698 24.8195 56.9262 25.0903 55.5423 25.0903C54.0982 25.0903 52.8146 24.8295 51.6914 24.308C50.5882 23.7665 49.7258 23.0043 49.104 22.0215C48.5023 21.0187 48.2014 19.8554 48.2014 18.5316C48.2014 17.9099 48.2817 17.2179 48.4421 16.4557C48.9837 13.9687 50.1771 12.0933 52.0223 10.8297C53.8876 9.56614 56.0939 8.93435 58.6411 8.93435ZM81.8669 9.08477C83.0101 9.08477 83.9227 9.40569 84.6047 10.0475C85.3066 10.6693 85.6576 11.4314 85.6576 12.334C85.6576 13.2967 85.3668 14.0489 84.7852 14.5904C84.2035 15.132 83.4413 15.4027 82.4987 15.4027C81.6563 15.4027 81.0044 15.1921 80.5431 14.7709C80.0818 14.3297 79.8612 13.8383 79.8812 13.2967C79.6807 13.2566 79.5102 13.3369 79.3698 13.5374C79.2294 13.738 79.079 14.1291 78.9185 14.7108C78.8182 15.0918 78.6277 15.4428 78.3469 15.7638C79.7107 15.864 80.7236 16.1749 81.3855 16.6964C82.0474 17.2179 82.3783 17.8898 82.3783 18.7121C82.3783 19.1133 82.3081 19.5144 82.1677 19.9156L81.927 20.8482C81.8869 20.9485 81.8669 21.0789 81.8669 21.2393C81.8669 21.5201 81.9972 21.6605 82.258 21.6605C82.4987 21.6605 82.6992 21.5602 82.8597 21.3597C83.0402 21.139 83.1605 21.0287 83.2207 21.0287C83.321 21.0287 83.4012 21.0989 83.4614 21.2393C83.5216 21.3597 83.5517 21.5101 83.5517 21.6906C83.5717 22.2722 83.3912 22.8439 83.0101 23.4055C82.6491 23.947 82.0875 24.3983 81.3253 24.7593C80.5832 25.1003 79.6807 25.2708 78.6176 25.2708C77.334 25.2708 76.2609 24.9499 75.3985 24.308C74.5561 23.6662 74.1349 22.8238 74.1349 21.7809C74.1349 21.3998 74.2151 20.9685 74.3756 20.4872L74.9472 18.9829C75.0475 18.6219 75.0976 18.3611 75.0976 18.2007C75.0976 17.9399 75.0074 17.7494 74.8269 17.6291C74.6664 17.5087 74.4057 17.4485 74.0446 17.4485H73.4429L72.0891 21.8711C72.0289 22.1118 71.9988 22.3224 71.9988 22.5029C71.9988 22.7636 72.049 22.9742 72.1493 23.1347C72.2495 23.2751 72.3899 23.4155 72.5705 23.5559C72.7109 23.6963 72.8111 23.8166 72.8713 23.9169C72.9315 23.9972 72.9415 24.1075 72.9014 24.2479C72.8011 24.5086 72.6005 24.6991 72.2997 24.8195C71.9988 24.9398 71.5375 25 70.9158 25H64.0563C63.5348 25 63.1537 24.9198 62.913 24.7593C62.6723 24.5788 62.5921 24.3481 62.6723 24.0673C62.7526 23.8267 62.9632 23.6161 63.3041 23.4356C63.605 23.2751 63.8557 23.0846 64.0563 22.8639C64.2568 22.6433 64.4273 22.2923 64.5677 21.8109L69.1407 6.79828C69.2009 6.61776 69.231 6.46734 69.231 6.347C69.231 6.12637 69.1708 5.94585 69.0505 5.80546C68.9502 5.66506 68.8098 5.52466 68.6293 5.38426C68.4287 5.2238 68.2783 5.0834 68.178 4.96306C68.0977 4.84272 68.0877 4.68226 68.1479 4.48169C68.2682 4.02038 68.9 3.61924 70.0433 3.27827C71.1865 2.93731 72.3799 2.76682 73.6234 2.76682C74.7868 2.76682 75.6392 2.98745 76.1807 3.4287C76.7223 3.8499 76.993 4.44158 76.993 5.20375C76.993 5.66506 76.9228 6.10631 76.7824 6.52751L74.165 15.0718H75.1578C75.5589 15.0718 75.8799 14.9514 76.1205 14.7108C76.3813 14.4701 76.5819 14.1191 76.7223 13.6578C77.2237 12.1736 77.8755 11.0403 78.6778 10.2581C79.4801 9.47589 80.5431 9.08477 81.8669 9.08477ZM95.2615 8.93435C97.8087 8.93435 99.654 9.34551 100.797 10.1679C101.94 10.9701 102.512 12.0031 102.512 13.2667C102.512 13.6477 102.472 13.9987 102.392 14.3197C102.091 15.6434 101.249 16.5961 99.8646 17.1778C98.5007 17.7394 96.8861 18.0202 95.0208 18.0202C94.0781 18.0202 93.1956 17.96 92.3733 17.8397C92.3532 18.8826 92.634 19.6147 93.2157 20.0359C93.7973 20.4571 94.6096 20.6677 95.6526 20.6677C96.134 20.6677 96.5953 20.6175 97.0365 20.5173C97.4778 20.3969 98.0394 20.2264 98.7213 20.0058C99.2829 19.8052 99.664 19.705 99.8646 19.705C100.085 19.705 100.196 19.8353 100.196 20.0961C100.216 20.7981 99.9548 21.5402 99.4133 22.3224C98.8718 23.0846 98.0695 23.7364 97.0065 24.2779C95.9434 24.8195 94.6598 25.0903 93.1555 25.0903C90.9292 25.0903 89.104 24.5287 87.68 23.4055C86.2559 22.2823 85.5439 20.6476 85.5439 18.5015C85.5439 17.8998 85.6241 17.1978 85.7846 16.3955C86.286 13.9285 87.3791 12.0733 89.0639 10.8297C90.7687 9.56614 92.8346 8.93435 95.2615 8.93435ZM92.5839 16.0345C92.6641 16.0546 92.7744 16.0646 92.9148 16.0646C93.7572 16.0646 94.399 15.6735 94.8403 14.8913C95.2816 14.1091 95.4922 13.2366 95.4721 12.2738C95.452 11.7122 95.2916 11.4314 94.9907 11.4314C94.7701 11.4314 94.5094 11.612 94.2085 11.973C93.9076 12.314 93.6068 12.8354 93.3059 13.5374C93.0251 14.2394 92.7845 15.0718 92.5839 16.0345ZM115.346 9.47589C115.727 9.47589 116.018 9.55611 116.218 9.71657C116.439 9.87703 116.549 10.0977 116.549 10.3785C116.549 10.4587 116.529 10.5991 116.489 10.7996C116.228 11.6822 115.626 12.1234 114.684 12.1234H112.939L110.682 19.5545C110.582 19.8554 110.532 20.1663 110.532 20.4872C110.532 20.8482 110.632 21.0989 110.833 21.2393C111.033 21.3797 111.314 21.4499 111.675 21.4499C111.996 21.4499 112.397 21.4098 112.879 21.3296C113.119 21.2694 113.33 21.2393 113.51 21.2393C113.651 21.2393 113.751 21.2895 113.811 21.3897C113.892 21.47 113.932 21.5803 113.932 21.7207C113.952 22.1218 113.651 22.6132 113.029 23.1949C112.427 23.7565 111.605 24.2479 110.562 24.6691C109.519 25.0702 108.366 25.2708 107.102 25.2708C105.738 25.2708 104.645 24.9599 103.823 24.3381C103.001 23.7164 102.589 22.8639 102.589 21.7809C102.589 21.2794 102.67 20.7981 102.83 20.3367L104.756 14.3798C104.856 14.0389 104.906 13.7681 104.906 13.5675C104.906 13.1664 104.806 12.8254 104.605 12.5446C104.425 12.2638 104.164 11.973 103.823 11.6721C103.522 11.3913 103.311 11.1607 103.191 10.9802C103.071 10.7796 103.041 10.5489 103.101 10.2882C103.181 10.0275 103.352 9.82688 103.612 9.68648C103.873 9.54609 104.284 9.47589 104.846 9.47589H106.531L108.426 7.5805C109.088 6.91862 109.69 6.45731 110.231 6.19657C110.793 5.93583 111.515 5.80546 112.397 5.80546C113.661 5.80546 114.293 6.28682 114.293 7.24956C114.293 7.55041 114.253 7.83121 114.172 8.09195L113.751 9.47589H115.346Z" fill="white"/>
</svg>
